# xmcd CD database file
#
# Track frame offsets:
#	150
#	19461
#	41111
#	59072
#	72865
#	87493
#	107905
#	127952
#	149466
#	169124
#	189900
#	207096
#
# Disc length: 2988 seconds
#
# Revision: 0
# Processed by: cddbd v1.5.2PL0 Copyright (c) Steve Scherf et al.
# Submitted via: CDex 1.70beta2
#
DISCID=b40baa0c
DTITLE=Gary Richard - Once upon forever
DYEAR=1995
DGENRE=New Age
TTITLE0=Nobody But You
TTITLE1=Once Upon Forever
TTITLE2=The Old Country
TTITLE3=If You Only Knew
TTITLE4=Sea Horses
TTITLE5=Where Does Love Come From
TTITLE6=By My Heart
TTITLE7=Open Your Eyes
TTITLE8=The Ultimate Test
TTITLE9=Rememberance
TTITLE10=Avonlea
TTITLE11=The Return
EXTD=YEAR: 1995
EXTT0=
EXTT1=
EXTT2=
EXTT3=
EXTT4=
EXTT5=
EXTT6=
EXTT7=
EXTT8=
EXTT9=
EXTT10=
EXTT11=
PLAYORDER=
